<mxfile host="app.diagrams.net" modified="2024-05-09T15:30:18.893Z" agent="Mozilla/5.0 (Windows NT 10.0; Win64; x64) AppleWebKit/537.36 (KHTML, like Gecko) Chrome/123.0.0.0 Safari/537.36" etag="dBtsk9DhN0LglSoWymov" version="24.3.1" type="github">
  <diagram name="python的包" id="3GRJr2D6tFzAavrfDV42">
    <mxGraphModel dx="982" dy="741" grid="1" gridSize="10" guides="1" tooltips="1" connect="1" arrows="1" fold="1" page="1" pageScale="1" pageWidth="827" pageHeight="1169" math="0" shadow="0">
      <root>
        <mxCell id="0" />
        <mxCell id="1" parent="0" />
        <mxCell id="eYEpdYVJHW_z5jTC702Q-13" style="edgeStyle=orthogonalEdgeStyle;rounded=0;orthogonalLoop=1;jettySize=auto;html=1;exitX=0.5;exitY=1;exitDx=0;exitDy=0;entryX=0.5;entryY=0;entryDx=0;entryDy=0;" edge="1" parent="1" source="eYEpdYVJHW_z5jTC702Q-1" target="eYEpdYVJHW_z5jTC702Q-4">
          <mxGeometry relative="1" as="geometry" />
        </mxCell>
        <mxCell id="eYEpdYVJHW_z5jTC702Q-14" style="edgeStyle=orthogonalEdgeStyle;rounded=0;orthogonalLoop=1;jettySize=auto;html=1;exitX=0.5;exitY=1;exitDx=0;exitDy=0;entryX=0.5;entryY=0;entryDx=0;entryDy=0;" edge="1" parent="1" source="eYEpdYVJHW_z5jTC702Q-1" target="eYEpdYVJHW_z5jTC702Q-2">
          <mxGeometry relative="1" as="geometry" />
        </mxCell>
        <mxCell id="eYEpdYVJHW_z5jTC702Q-15" style="edgeStyle=orthogonalEdgeStyle;rounded=0;orthogonalLoop=1;jettySize=auto;html=1;exitX=0.5;exitY=1;exitDx=0;exitDy=0;" edge="1" parent="1" source="eYEpdYVJHW_z5jTC702Q-1" target="eYEpdYVJHW_z5jTC702Q-3">
          <mxGeometry relative="1" as="geometry" />
        </mxCell>
        <mxCell id="eYEpdYVJHW_z5jTC702Q-1" value="package" style="rounded=0;whiteSpace=wrap;html=1;fillColor=#ffe6cc;strokeColor=#d79b00;" vertex="1" parent="1">
          <mxGeometry x="310" y="150" width="90" height="40" as="geometry" />
        </mxCell>
        <mxCell id="eYEpdYVJHW_z5jTC702Q-2" value="__init__.py" style="rounded=0;whiteSpace=wrap;html=1;fillColor=#ffe6cc;strokeColor=#d79b00;" vertex="1" parent="1">
          <mxGeometry x="180" y="230" width="90" height="40" as="geometry" />
        </mxCell>
        <mxCell id="eYEpdYVJHW_z5jTC702Q-20" style="edgeStyle=orthogonalEdgeStyle;rounded=0;orthogonalLoop=1;jettySize=auto;html=1;exitX=0.25;exitY=1;exitDx=0;exitDy=0;entryX=0;entryY=0.5;entryDx=0;entryDy=0;" edge="1" parent="1" source="eYEpdYVJHW_z5jTC702Q-3" target="eYEpdYVJHW_z5jTC702Q-7">
          <mxGeometry relative="1" as="geometry" />
        </mxCell>
        <mxCell id="eYEpdYVJHW_z5jTC702Q-21" style="edgeStyle=orthogonalEdgeStyle;rounded=0;orthogonalLoop=1;jettySize=auto;html=1;exitX=0.25;exitY=1;exitDx=0;exitDy=0;entryX=0;entryY=0.5;entryDx=0;entryDy=0;" edge="1" parent="1" source="eYEpdYVJHW_z5jTC702Q-3" target="eYEpdYVJHW_z5jTC702Q-11">
          <mxGeometry relative="1" as="geometry" />
        </mxCell>
        <mxCell id="eYEpdYVJHW_z5jTC702Q-22" style="edgeStyle=orthogonalEdgeStyle;rounded=0;orthogonalLoop=1;jettySize=auto;html=1;exitX=0.25;exitY=1;exitDx=0;exitDy=0;entryX=0;entryY=0.5;entryDx=0;entryDy=0;" edge="1" parent="1" source="eYEpdYVJHW_z5jTC702Q-3" target="eYEpdYVJHW_z5jTC702Q-12">
          <mxGeometry relative="1" as="geometry" />
        </mxCell>
        <mxCell id="eYEpdYVJHW_z5jTC702Q-3" value="sub-packageB" style="rounded=0;whiteSpace=wrap;html=1;fillColor=#ffe6cc;strokeColor=#d79b00;" vertex="1" parent="1">
          <mxGeometry x="460" y="230" width="90" height="40" as="geometry" />
        </mxCell>
        <mxCell id="eYEpdYVJHW_z5jTC702Q-17" style="edgeStyle=orthogonalEdgeStyle;rounded=0;orthogonalLoop=1;jettySize=auto;html=1;exitX=0.25;exitY=1;exitDx=0;exitDy=0;entryX=0;entryY=0.5;entryDx=0;entryDy=0;" edge="1" parent="1" source="eYEpdYVJHW_z5jTC702Q-4" target="eYEpdYVJHW_z5jTC702Q-6">
          <mxGeometry relative="1" as="geometry" />
        </mxCell>
        <mxCell id="eYEpdYVJHW_z5jTC702Q-18" style="edgeStyle=orthogonalEdgeStyle;rounded=0;orthogonalLoop=1;jettySize=auto;html=1;exitX=0.25;exitY=1;exitDx=0;exitDy=0;entryX=0;entryY=0.5;entryDx=0;entryDy=0;" edge="1" parent="1" source="eYEpdYVJHW_z5jTC702Q-4" target="eYEpdYVJHW_z5jTC702Q-8">
          <mxGeometry relative="1" as="geometry" />
        </mxCell>
        <mxCell id="eYEpdYVJHW_z5jTC702Q-19" style="edgeStyle=orthogonalEdgeStyle;rounded=0;orthogonalLoop=1;jettySize=auto;html=1;exitX=0.25;exitY=1;exitDx=0;exitDy=0;entryX=0;entryY=0.5;entryDx=0;entryDy=0;" edge="1" parent="1" source="eYEpdYVJHW_z5jTC702Q-4" target="eYEpdYVJHW_z5jTC702Q-10">
          <mxGeometry relative="1" as="geometry" />
        </mxCell>
        <mxCell id="eYEpdYVJHW_z5jTC702Q-4" value="sub-packageA" style="rounded=0;whiteSpace=wrap;html=1;fillColor=#ffe6cc;strokeColor=#d79b00;" vertex="1" parent="1">
          <mxGeometry x="310" y="230" width="90" height="40" as="geometry" />
        </mxCell>
        <mxCell id="eYEpdYVJHW_z5jTC702Q-6" value="__init__.py" style="rounded=0;whiteSpace=wrap;html=1;fillColor=#ffe6cc;strokeColor=#d79b00;" vertex="1" parent="1">
          <mxGeometry x="360" y="290" width="90" height="40" as="geometry" />
        </mxCell>
        <mxCell id="eYEpdYVJHW_z5jTC702Q-7" value="__init__.py" style="rounded=0;whiteSpace=wrap;html=1;fillColor=#ffe6cc;strokeColor=#d79b00;" vertex="1" parent="1">
          <mxGeometry x="510" y="290" width="90" height="40" as="geometry" />
        </mxCell>
        <mxCell id="eYEpdYVJHW_z5jTC702Q-8" value="module1.py" style="rounded=0;whiteSpace=wrap;html=1;fillColor=#ffe6cc;strokeColor=#d79b00;" vertex="1" parent="1">
          <mxGeometry x="360" y="350" width="90" height="40" as="geometry" />
        </mxCell>
        <mxCell id="eYEpdYVJHW_z5jTC702Q-10" value="module2.py" style="rounded=0;whiteSpace=wrap;html=1;fillColor=#ffe6cc;strokeColor=#d79b00;" vertex="1" parent="1">
          <mxGeometry x="360" y="410" width="90" height="40" as="geometry" />
        </mxCell>
        <mxCell id="eYEpdYVJHW_z5jTC702Q-11" value="module1.py" style="rounded=0;whiteSpace=wrap;html=1;fillColor=#ffe6cc;strokeColor=#d79b00;" vertex="1" parent="1">
          <mxGeometry x="510" y="350" width="90" height="40" as="geometry" />
        </mxCell>
        <mxCell id="eYEpdYVJHW_z5jTC702Q-12" value="module2.py" style="rounded=0;whiteSpace=wrap;html=1;fillColor=#ffe6cc;strokeColor=#d79b00;" vertex="1" parent="1">
          <mxGeometry x="510" y="410" width="90" height="40" as="geometry" />
        </mxCell>
      </root>
    </mxGraphModel>
  </diagram>
</mxfile>
